<?xml version="1.0" standalone="no"?>
<!DOCTYPE svg PUBLIC "-//W3C//DTD SVG 20010904//EN"
 "http://www.w3.org/TR/2001/REC-SVG-20010904/DTD/svg10.dtd">
<svg version="1.0" xmlns="http://www.w3.org/2000/svg"
 width="500.000000pt" height="500.000000pt" viewBox="0 0 500.000000 500.000000"
 preserveAspectRatio="xMidYMid meet">

<g transform="translate(0.000000,500.000000) scale(0.100000,-0.100000)"
fill="#000000" stroke="none">
<path d="M0 2500 l0 -2500 2500 0 2500 0 0 2500 0 2500 -2500 0 -2500 0 0
-2500z m2246 1575 c-9 -34 17 -87 53 -108 40 -24 102 -22 135 4 36 28 55 69
49 102 -5 23 -2 27 17 27 19 0 21 -4 16 -25 -9 -34 17 -87 53 -108 16 -9 48
-17 70 -17 33 0 49 7 78 34 32 29 37 39 36 75 -2 35 1 41 18 41 21 0 24 -11 9
-38 -5 -9 -21 -64 -35 -122 -15 -58 -31 -122 -36 -142 l-10 -38 -199 0 -199 0
-10 38 c-6 20 -22 87 -37 147 -15 61 -31 112 -36 113 -4 2 -8 12 -8 23 0 13 7
19 21 19 18 0 20 -4 15 -25z m-120 -264 c-3 -5 -21 -14 -38 -20 l-33 -11 24
20 c23 20 57 28 47 11z m795 -11 c13 -10 20 -19 16 -20 -11 0 -67 29 -67 35 0
12 30 3 51 -15z m-901 -2 c-1 -18 -29 -53 -36 -45 -4 3 1 18 10 32 18 28 26
32 26 13z m984 -10 c18 -25 20 -38 8 -38 -4 0 -16 14 -25 30 -21 35 -6 41 17
8z m-1054 -33 c0 -4 -8 -20 -17 -38 -13 -24 -18 -28 -21 -15 -4 20 14 58 28
58 6 0 10 -2 10 -5z m1124 -11 c9 -8 16 -25 16 -37 0 -19 -2 -19 -14 -7 -14
16 -31 60 -22 60 2 0 12 -7 20 -16z m-1016 -6 c-5 -15 -58 -24 -58 -9 0 9 20
17 48 20 8 0 12 -5 10 -11z m926 3 c14 -5 16 -10 7 -15 -16 -10 -63 2 -56 14
7 12 22 12 49 1z m-1114 -69 c0 -25 -25 -58 -34 -44 -7 12 13 62 26 62 4 0 8
-8 8 -18z m130 13 c0 -3 -12 -10 -26 -15 -29 -11 -54 -3 -33 11 15 9 59 12 59
4z m1059 -4 c21 -14 -4 -22 -33 -11 -14 5 -26 12 -26 15 0 8 44 5 59 -4z m95
-7 c3 -9 6 -28 6 -42 l-1 -27 -14 25 c-16 28 -19 60 -6 60 5 0 12 -7 15 -16z
m-447 -24 c54 -32 78 -91 78 -190 0 -98 -19 -143 -81 -198 l-37 -33 7 -183 c4
-101 11 -223 17 -272 14 -123 14 -276 0 -302 -12 -23 -36 -28 -61 -12 -20 13
-26 148 -11 266 6 49 14 183 18 297 l6 208 -41 42 c-46 47 -67 90 -77 159 -13
85 39 204 99 228 33 13 48 11 83 -10z m-777 -28 c0 -13 -50 -33 -61 -26 -13 8
20 33 44 34 9 0 17 -4 17 -8z m1189 -6 c16 -9 19 -14 10 -18 -18 -7 -59 8 -59
22 0 14 20 12 49 -4z m-1331 -62 l-12 -29 -4 33 c-4 38 21 81 26 45 2 -10 -3
-33 -10 -49z m1442 8 c0 -47 -18 -30 -27 24 -6 36 -5 38 10 25 10 -8 17 -28
17 -49z m-861 -183 c1 -58 -3 -71 -29 -107 -30 -42 -30 -42 -30 -184 0 -79 7
-229 17 -334 12 -135 14 -205 7 -239 -17 -87 -71 -87 -88 0 -7 33 -5 100 7
229 23 237 23 488 1 507 -39 32 -47 68 -40 188 8 144 26 173 26 43 0 -55 4
-92 10 -92 6 0 10 26 10 59 0 33 5 63 10 66 6 4 10 -18 10 -59 0 -72 19 -93
21 -23 1 23 5 53 9 67 6 18 8 7 9 -42 2 -116 21 -78 22 45 l2 112 13 -85 c7
-47 13 -115 13 -151z m-499 172 c0 -12 -40 -41 -57 -41 -22 0 -14 19 15 34 32
18 42 19 42 7z m1301 -8 c30 -18 38 -33 16 -33 -17 0 -57 29 -57 41 0 13 8 11
41 -8z m-1437 -72 c-4 -17 -10 -31 -14 -31 -11 0 -20 27 -15 45 17 53 16 51
26 33 5 -9 6 -30 3 -47z m1556 2 c0 -17 -4 -34 -9 -37 -11 -7 -25 69 -16 85
11 17 25 -10 25 -48z m-1490 -28 c-13 -14 -32 -25 -43 -25 -20 0 -19 1 3 25
13 14 32 25 43 25 20 0 19 -1 -3 -25z m1435 5 c10 -11 15 -23 12 -27 -9 -9
-55 16 -61 33 -8 22 28 17 49 -6z m-1555 -82 c-1 -49 -2 -51 -15 -34 -16 21
-19 44 -9 70 12 32 24 14 24 -36z m1664 36 c9 -24 7 -39 -9 -60 -13 -18 -14
-15 -15 29 0 46 12 62 24 31z m-1574 -37 c0 -20 -36 -49 -54 -45 -14 2 -12 8
9 31 28 29 45 35 45 14z m1497 -9 c25 -24 30 -38 11 -38 -16 0 -48 31 -48 47
0 19 10 16 37 -9z m-1621 -113 l5 -50 -20 24 c-20 22 -28 70 -14 85 12 12 23
-9 29 -59z m1740 12 c-4 -19 -13 -40 -21 -47 -13 -11 -15 -8 -15 18 0 17 5 43
10 58 15 39 35 16 26 -29z m-71 -27 c10 -19 11 -30 5 -30 -17 0 -60 47 -60 65
0 24 36 1 55 -35z m-1575 30 c0 -14 -46 -60 -60 -60 -11 0 1 30 23 58 12 15
37 16 37 2z m-115 -142 c7 -38 -3 -50 -22 -25 -14 17 -25 66 -17 78 10 17 32
-12 39 -53z m1781 -4 c-4 -13 -15 -28 -25 -33 -18 -10 -18 -8 -9 31 5 23 14
49 21 57 10 12 13 11 15 -8 2 -13 1 -34 -2 -47z m-1686 36 c0 -21 -29 -68 -46
-74 -13 -5 -15 -2 -9 21 10 42 55 85 55 53z m1604 -34 c10 -20 16 -40 13 -43
-10 -10 -57 46 -57 67 0 32 22 20 44 -24z m-1705 -122 c24 -51 23 -61 -7 -45
-21 11 -46 67 -36 82 11 18 22 8 43 -37z m97 14 c-4 -18 -15 -42 -26 -53 -20
-19 -20 -19 -20 11 0 31 24 74 42 74 7 0 8 -12 4 -32z m1593 18 c7 -8 14 -31
17 -53 l6 -38 -26 28 c-14 15 -26 39 -26 53 0 27 12 31 29 10z m111 -16 c0
-29 -29 -70 -51 -70 -12 0 -5 29 18 73 18 36 33 34 33 -3z m-1684 -143 c-4
-19 -13 -40 -21 -47 -13 -11 -15 -6 -15 32 0 46 17 75 33 59 5 -5 7 -25 3 -44z
m1564 -16 l-1 -46 -19 24 c-19 22 -27 71 -13 84 15 16 33 -18 33 -62z m92 -20
c-10 -14 -29 -27 -41 -29 -22 -3 -22 -3 -6 28 9 17 26 41 38 53 l22 22 3 -24
c2 -13 -5 -36 -16 -50z m-1751 17 c27 -38 28 -43 13 -47 -22 -4 -64 42 -64 70
0 30 17 22 51 -23z m137 -104 c2 -23 -3 -47 -12 -59 -14 -19 -15 -18 -21 18
-9 44 1 90 18 84 7 -2 13 -21 15 -43z m1476 20 c4 -14 4 -41 0 -61 -5 -27 -4
-34 5 -28 8 4 7 -4 -3 -24 -9 -17 -19 -31 -22 -31 -2 0 0 9 6 21 9 16 8 24 -4
38 -16 17 -22 91 -9 104 12 13 21 7 27 -19z m-1556 -71 c33 -41 33 -43 12 -43
-23 0 -90 59 -90 80 0 24 44 3 78 -37z m1682 36 c0 -20 -68 -79 -90 -79 -25 0
-22 6 29 63 25 27 61 37 61 16z m-1526 -128 c0 -25 -5 -47 -15 -56 -14 -15
-17 -14 -30 2 -13 17 -13 17 5 3 18 -14 19 -13 12 5 -13 34 -19 83 -12 101 11
30 38 -8 40 -55z m1330 23 c-1 -21 -4 -50 -8 -64 -7 -24 -7 -25 9 -5 9 11 23
29 31 40 9 12 7 6 -3 -14 -27 -51 -148 -176 -218 -226 -149 -107 -306 -157
-490 -158 -239 -1 -428 75 -590 237 -45 45 -57 59 -28 31 57 -53 64 -54 33 -3
-24 39 -27 88 -5 88 32 0 60 -101 34 -127 -14 -14 94 -92 194 -138 215 -99
491 -101 702 -6 97 44 192 111 263 184 l62 65 -17 30 c-15 26 -15 35 -4 71 15
52 36 49 35 -5z m-1414 -4 c6 -11 8 -20 6 -20 -3 0 -10 9 -16 20 -6 11 -8 20
-6 20 3 0 10 -9 16 -20z m-2 -62 c44 -34 43 -56 -1 -44 -32 8 -77 44 -77 62 0
24 34 16 78 -18z m1542 22 c0 -18 -47 -59 -75 -66 -48 -12 -50 11 -4 45 43 31
79 40 79 21z m-216 -67 c-2 -32 -30 -83 -46 -83 -14 0 -4 86 12 105 19 23 35
12 34 -22z m-1213 -90 c34 -18 46 -29 37 -35 -33 -20 -108 4 -128 42 -9 18 -8
20 16 20 14 0 48 -12 75 -27z m189 -5 c20 -34 27 -88 11 -88 -16 0 -61 69 -61
94 0 37 26 33 50 -6z m910 7 c0 -15 -14 -41 -35 -63 l-34 -37 -1 33 c0 37 33
92 56 92 8 0 14 -10 14 -25z m230 11 c0 -31 -92 -67 -124 -49 -14 8 -8 14 31
36 53 29 93 35 93 13z m-991 -98 c28 -29 43 -78 23 -78 -16 0 -81 65 -87 88
-10 34 26 29 64 -10z m624 25 c10 -17 -14 -54 -54 -83 -23 -16 -43 -29 -45
-28 -1 2 0 15 3 31 10 49 80 107 96 80z m-831 -49 c78 -22 74 -44 -8 -44 -54
0 -108 35 -81 52 17 11 23 10 89 -8z m1066 7 c24 -15 -34 -51 -82 -51 -39 0
-76 13 -66 23 7 7 102 36 120 36 8 0 21 -3 28 -8z m-698 -17 c27 -17 66 -71
57 -80 -8 -8 -80 25 -104 48 -46 43 -11 66 47 32z m310 7 c0 -20 -43 -60 -81
-75 -23 -9 -44 -15 -46 -12 -9 9 24 58 53 76 30 20 74 27 74 11z m-485 -89
l39 -7 -29 -24 c-25 -19 -37 -22 -74 -17 -24 3 -50 11 -58 18 -13 10 -12 14 3
25 19 14 57 16 119 5z m712 -5 c15 -15 -10 -36 -50 -42 -45 -7 -107 13 -107
35 0 17 141 23 157 7z m-493 -62 c-29 -44 -145 -62 -152 -23 -4 21 61 43 141
47 27 1 27 1 11 -24z m276 1 c40 -18 32 -41 -17 -44 -48 -4 -97 18 -113 49
-11 20 -10 20 47 14 32 -4 69 -12 83 -19z m-477 -553 c32 -16 33 -23 9 -54
-18 -21 -20 -22 -43 -6 -30 21 -93 22 -113 1 -19 -18 -19 -20 -6 -44 7 -13 30
-23 72 -31 41 -8 72 -21 92 -40 27 -24 31 -34 31 -79 0 -46 -4 -55 -33 -81
-29 -26 -40 -29 -98 -29 -108 0 -174 44 -136 90 l18 22 38 -26 c64 -43 142
-29 134 24 -3 27 -31 45 -97 61 -85 21 -122 89 -86 158 28 56 140 73 218 34z
m491 -2 c16 -9 35 -26 43 -38 13 -20 12 -23 -11 -38 -25 -16 -27 -16 -57 9
-88 75 -187 -10 -164 -141 10 -62 45 -93 105 -93 30 0 72 30 81 59 4 10 10 10
32 0 31 -14 32 -20 12 -59 -21 -41 -63 -60 -132 -60 -76 0 -121 24 -150 80
-45 85 -22 232 42 274 54 36 143 39 199 7z m-2114 -104 l75 -122 3 123 3 122
34 0 35 0 0 -191 0 -190 -37 3 c-36 3 -40 7 -118 133 l-80 130 -3 -132 -3
-133 -34 0 -35 0 0 190 0 190 43 0 42 -1 75 -122z m400 -14 c25 -72 48 -134
51 -138 4 -3 9 5 13 19 3 14 25 77 47 141 l41 115 49 0 49 0 0 -190 0 -190
-35 0 -35 0 0 127 c0 78 -4 123 -9 118 -5 -6 -27 -62 -49 -125 l-39 -115 -33
0 -33 0 -41 117 c-23 64 -45 120 -49 124 -4 4 -7 -50 -7 -119 l0 -127 -35 0
-35 0 0 191 0 190 52 -3 53 -3 45 -132z m420 -53 l0 -190 -35 0 -35 0 0 190 0
190 35 0 35 0 0 -190z m246 50 c56 -163 49 -164 110 23 l38 117 48 0 48 0 0
-190 0 -190 -35 0 -34 0 -3 128 -3 127 -45 -127 c-45 -128 -45 -128 -77 -128
-31 0 -31 0 -75 128 l-43 127 -3 -127 -3 -128 -34 0 -35 0 0 190 0 190 49 0
49 0 48 -140z m1884 80 c0 -28 2 -30 40 -30 38 0 40 -2 40 -30 0 -28 -2 -30
-40 -30 l-40 0 0 -72 c0 -88 8 -102 48 -96 26 4 32 1 37 -19 8 -35 -1 -43 -54
-43 -33 0 -56 6 -72 19 -22 17 -24 29 -27 115 -4 86 -6 96 -23 96 -14 0 -19 7
-19 30 0 23 4 30 20 30 14 0 20 7 20 23 0 31 7 37 42 37 24 0 28 -4 28 -30z
m-547 -41 c36 -16 47 -50 47 -139 0 -62 3 -80 14 -80 13 0 28 -45 18 -55 -14
-14 -72 -4 -85 15 l-14 20 -18 -20 c-26 -28 -105 -28 -131 1 -23 26 -25 92 -2
115 9 9 45 24 80 33 50 13 63 20 63 36 0 27 -64 33 -100 9 -24 -16 -26 -16
-40 2 -19 25 -15 34 25 56 39 20 107 24 143 7z m197 -9 c0 -11 2 -20 5 -20 3
0 15 9 27 20 29 27 97 27 129 1 23 -18 24 -27 27 -145 l4 -126 -36 0 -36 0 0
103 c0 110 -6 127 -49 127 -50 0 -61 -24 -61 -132 l0 -98 -40 0 -40 0 0 138
c0 76 3 142 7 145 3 4 19 7 35 7 21 0 28 -5 28 -20z m701 -8 c26 -23 33 -38
37 -80 l5 -52 -97 0 c-103 0 -111 -5 -80 -48 18 -27 78 -30 105 -6 14 12 22
13 38 4 53 -28 -4 -80 -86 -80 -105 0 -148 47 -141 156 6 94 46 132 140 133
39 1 54 -4 79 -27z m315 -6 c29 -29 34 -41 34 -80 l0 -46 -96 0 c-94 0 -95 0
-88 -22 3 -13 11 -29 16 -35 14 -18 83 -16 102 2 12 12 20 13 40 3 33 -15 33
-21 -5 -52 -25 -22 -41 -26 -90 -26 -53 0 -63 3 -96 33 -31 29 -37 41 -41 88
-8 106 45 169 142 169 41 0 53 -5 82 -34z m171 14 c5 -20 5 -20 30 0 37 29 97
27 128 -5 24 -23 25 -30 25 -145 l0 -120 -35 0 -35 0 0 103 c0 112 -6 127 -51
127 -46 0 -59 -31 -59 -137 l0 -93 -35 0 -35 0 0 145 0 145 31 0 c22 0 32 -5
36 -20z"/>
<path d="M2931 1367 c-43 -15 -60 -39 -42 -61 31 -37 91 -5 91 47 0 30 -1 31
-49 14z"/>
<path d="M3775 1455 c-38 -37 -31 -45 35 -45 53 0 60 2 60 19 0 21 -35 51 -58
51 -7 0 -24 -11 -37 -25z"/>
<path d="M4092 1464 c-12 -8 -22 -24 -22 -35 0 -16 7 -19 55 -19 48 0 55 3 55
19 0 24 -26 51 -48 51 -10 0 -28 -7 -40 -16z"/>
</g>
</svg>
